<svg width="24" height="24" viewBox="0 0 24 24" fill="none" xmlns="http://www.w3.org/2000/svg">
<path d="M12 2.5127C12.3743 2.5127 12.7353 2.6529 13.0117 2.90527L13.0127 2.90625L20.5107 9.71973L20.5215 9.72949C20.6697 9.86946 20.7879 10.0381 20.8701 10.2246C20.9523 10.4111 20.9967 10.6126 21 10.8164V19.5C21 19.8978 20.8418 20.2792 20.5605 20.5605C20.2792 20.8418 19.8978 21 19.5 21H15C14.6022 21 14.2208 20.8418 13.9395 20.5605C13.6582 20.2792 13.5 19.8978 13.5 19.5V15H10.5V19.5C10.5 19.8978 10.3418 20.2793 10.0605 20.5605C9.77924 20.8418 9.39781 21 9 21H4.5C4.10219 21 3.72076 20.8418 3.43945 20.5605C3.15816 20.2793 3.00001 19.8978 3 19.5V10.8164C3.0033 10.6126 3.04769 10.4111 3.12988 10.2246C3.21208 10.0381 3.33032 9.86946 3.47852 9.72949L3.48926 9.71973L10.9873 2.90625L10.9883 2.90527C11.2647 2.6529 11.6257 2.5127 12 2.5127ZM11.998 4.01465L4.50684 10.8223C4.50501 10.8244 4.50309 10.8265 4.50195 10.8291C4.50075 10.8318 4.50029 10.8349 4.5 10.8379V19.5H9V15C9 14.6022 9.15816 14.2208 9.43945 13.9395C9.72076 13.6581 10.1022 13.5 10.5 13.5H13.5C13.8978 13.5 14.2792 13.6581 14.5605 13.9395C14.8418 14.2208 15 14.6022 15 15V19.5H19.5V10.8379C19.4997 10.8349 19.4992 10.8318 19.498 10.8291C19.4969 10.8265 19.495 10.8244 19.4932 10.8223L12.002 4.01465L12 4.0127L11.998 4.01465Z" fill="#9747FF"/>
</svg>
